<?xml version="1.0"?>
<svg xmlns="http://www.w3.org/2000/svg" version="1" viewBox="0 0 26 26" enable-background="new 0 0 26 26">
    <path style="text-indent:0;text-align:start;line-height:normal;text-transform:none;block-progression:tb;-inkscape-font-specification:Bitstream Vera Sans" d="M 0 0 L 0 1 L 0 5 L 2 5 L 2 2 L 5 2 L 5 0 L 1 0 L 0 0 z M 7 0 L 7 2 L 12 2 L 12 0 L 7 0 z M 14 0 L 14 2 L 19 2 L 19 0 L 14 0 z M 21 0 L 21 2 L 24 2 L 24 5 L 26 5 L 26 1 L 26 0 L 25 0 L 21 0 z M 6 6 L 6 8 L 20 8 L 20 6 L 6 6 z M 0 7 L 0 12 L 2 12 L 2 7 L 0 7 z M 24 7 L 24 12 L 26 12 L 26 7 L 24 7 z M 6 10 L 6 12 L 18 12 L 18 10 L 6 10 z M 0 14 L 0 19 L 2 19 L 2 14 L 0 14 z M 6 14 L 6 16 L 20 16 L 20 14 L 6 14 z M 24 14 L 24 19 L 26 19 L 26 14 L 24 14 z M 6 18 L 6 20 L 18 20 L 18 18 L 6 18 z M 0 21 L 0 25 L 0 26 L 1 26 L 5 26 L 5 24 L 2 24 L 2 21 L 0 21 z M 24 21 L 24 24 L 21 24 L 21 26 L 25 26 L 26 26 L 26 25 L 26 21 L 24 21 z M 7 24 L 7 26 L 12 26 L 12 24 L 7 24 z M 14 24 L 14 26 L 19 26 L 19 24 L 14 24 z"/>
</svg>
