<svg xmlns="http://www.w3.org/2000/svg" xmlns:xlink="http://www.w3.org/1999/xlink" version="1.1" x="0px" y="0px"
    viewBox="0 0 100 100" enable-background="new 0 0 100 100" xml:space="preserve">
    <g>
        <path
            d="M95,71.407c0,1.526-1.236,2.762-2.762,2.762H82.57v9.668c0,1.526-1.236,2.762-2.762,2.762s-2.762-1.236-2.762-2.762v-9.668   h-9.668c-1.526,0-2.762-1.236-2.762-2.762s1.236-2.762,2.762-2.762h9.668v-9.668c0-1.526,1.236-2.762,2.762-2.762   s2.762,1.236,2.762,2.762v9.668h9.668C93.764,68.645,95,69.881,95,71.407z" />
    </g>
    <g>
        <circle cx="15.933" cy="24.334" r="2.59" />
    </g>
    <g>
        <circle cx="22.954" cy="24.334" r="2.59" />
    </g>
    <g>
        <circle cx="29.917" cy="24.334" r="2.59" />
    </g>
    <g>
        <path
            d="M79.808,13.401H7.762C6.236,13.401,5,14.637,5,16.163v55.244c0,1.526,1.236,2.762,2.762,2.762H55.12   c1.526,0,2.762-1.236,2.762-2.762s-1.236-2.762-2.762-2.762H10.524V35.036h66.521V46.72c0,1.526,1.236,2.762,2.762,2.762   s2.762-1.236,2.762-2.762V16.163C82.57,14.637,81.334,13.401,79.808,13.401z M77.046,29.511H10.524V18.925h66.521V29.511z" />
    </g>
</svg>