<?xml version="1.0" encoding="utf-8"?>
<!-- Svg Vector Icons : http://www.onlinewebfonts.com/icon -->
<!DOCTYPE svg PUBLIC "-//W3C//DTD SVG 1.1//EN" "http://www.w3.org/Graphics/SVG/1.1/DTD/svg11.dtd">
<svg version="1.1" xmlns="http://www.w3.org/2000/svg" xmlns:xlink="http://www.w3.org/1999/xlink" x="0px" y="0px" viewBox="0 0 1000 1000" enable-background="new 0 0 1000 1000" xml:space="preserve">
<metadata> Svg Vector Icons : http://www.onlinewebfonts.com/icon </metadata>
<g><path d="M589.4,400.3c-13.8,0-23.7,7.3-29.5,22c-5.8,14.7-8.7,40.4-8.7,77.2c0,36.4,3,62.2,8.9,77.1c5.9,15,15.8,22.5,29.6,22.5c13.7,0,23.4-7.1,29-21.3c5.6-14.2,8.4-40.3,8.4-78.3c0-37-2.9-62.8-8.6-77.4C612.9,407.6,603.1,400.3,589.4,400.3z M500,10C229.4,10,10,229.4,10,500c0,270.6,219.4,490,490,490s490-219.4,490-490C990,229.4,770.6,10,500,10z M469.1,604.9C456.9,623,438,632,412.5,632c-26.3,0-45.4-10.2-57.1-30.7c-11.8-20.5-17.6-54.1-17.6-101c0-47.5,5.9-81.4,17.7-101.7c11.8-20.3,31.2-30.5,58.1-30.5c19,0,34.4,4.5,46,13.5c11.6,9,19.6,22.6,24,40.8l-30.7,14.8c-2.5-12.6-6.9-21.9-13.4-28c-6.5-6.1-15-9.2-25.6-9.2c-15,0-25.7,7.2-31.8,21.6c-6.2,14.4-9.3,40.4-9.3,78c0,37.3,3.1,63.2,9.3,77.8c6.2,14.6,16.8,21.9,31.8,21.9c13.4,0,23.5-5.5,30.2-16.6c6.8-11,10.1-27.6,10.1-49.5c0-3.3,0-5.8-0.1-7.5c-0.1-1.7-0.1-3.3-0.3-4.7H417v-30.3h69.5c0.4,5.4,0.6,10.7,0.8,15.9c0.2,5.2,0.3,10.1,0.3,14.8C487.6,559,481.4,586.9,469.1,604.9z M645.2,601.5c-11.4,20.3-30,30.5-55.8,30.5c-25.9,0-44.6-10.2-56.1-30.5c-11.4-20.3-17.2-54.1-17.2-101.2c0-47.1,5.7-81,17.2-101.5c11.4-20.5,30.1-30.8,56.1-30.8c25.8,0,44.4,10.2,55.8,30.6c11.4,20.4,17.1,54.3,17.1,101.7C662.3,547.4,656.6,581.1,645.2,601.5z"/></g>
</svg>