<?xml version="1.0" encoding="utf-8"?>
<!-- Svg Vector Icons : http://www.onlinewebfonts.com/icon -->
<!DOCTYPE svg PUBLIC "-//W3C//DTD SVG 1.1//EN" "http://www.w3.org/Graphics/SVG/1.1/DTD/svg11.dtd">
<svg version="1.1" xmlns="http://www.w3.org/2000/svg" xmlns:xlink="http://www.w3.org/1999/xlink" x="0px" y="0px" viewBox="0 0 1000 1000" enable-background="new 0 0 1000 1000" xml:space="preserve">
<metadata> Svg Vector Icons : http://www.onlinewebfonts.com/icon </metadata>
<g><g transform="translate(0.000000,511.000000) scale(0.100000,-0.100000)"><path d="M5115.4,4724.7c-113-42.4-215.9-131.1-290.5-256.2c-98.9-163.4-113-238-117-613.3c-2-232-14.1-395.4-38.3-504.4c-145.3-692-593.1-1436.4-1291.1-2146.5L3112.1,934l-62.5,68.6l-60.5,68.6l-1329.5,6c-926,4-1349.6,0-1404.1-16.1c-50.4-14.1-90.8-44.4-115-86.7c-38.3-62.5-40.4-123.1-40.4-2693.2c0-2915.1-10.1-2721.5,131.1-2780c100.9-42.4,2640.8-42.4,2741.6,0c121,50.4,133.1,86.7,133.1,419.6c0,185.6,8.1,298.6,20.2,298.6c12.1,0,149.3-36.3,308.7-78.7c869.5-238,1735-387.3,2788-484.2c915.9-84.7,1771.3-106.9,2003.3-52.4c365.2,86.7,629.4,359.1,663.7,683.9c12.1,115-46.4,347-104.9,423.7c-28.3,36.3-22.2,42.4,111,106.9c240.1,117,407.5,322.8,476.1,593.1c52.5,201.7,26.2,367.2-104.9,653.6c-4,12.1,24.2,34.3,62.5,48.4c125.1,44.4,322.8,250.2,409.5,421.6c72.6,147.3,74.6,161.4,74.6,365.1c0,238.1-36.3,351-165.4,520.5c-36.3,48.4-66.6,90.8-66.6,94.8c0,4,36.3,46.4,80.7,94.8c104.9,115,195.7,298.6,225.9,455.9c44.4,242.1-42.4,518.5-228,720.2c-115,127.1-223.9,195.7-379.3,242.1c-96.8,28.2-288.5,32.3-1581.6,32.3c-1394,0-1470.7,2-1456.6,36.3c82.7,195.7,230,784.8,276.4,1103.5c38.3,268.3,32.3,883.6-10.1,1119.7c-119,645.6-427.7,1131.8-845.3,1331.5C5462.4,4748.9,5254.6,4777.1,5115.4,4724.7z M5484.6,4280.8c232-119,492.2-516.5,589.1-899.8c52.5-215.9,74.6-770.6,40.4-1039c-50.4-375.2-187.6-895.7-347-1297.2c-74.6-187.6-74.6-248.1,0-330.9l58.5-66.6l1692.6-10.1c1888.3-12.1,1759.2,0,1876.2-155.3c46.4-60.5,56.5-96.8,62.5-221.9c10.1-193.7-6-272.3-70.6-351C9277.3-220,9226.9-230.1,8660-230.1c-278.4,0-530.6-8.1-556.8-18.2c-127.1-48.4-179.6-213.8-102.9-322.8c64.6-92.8,133.2-102.9,641.5-102.9c286.5,0,496.3-8.1,530.6-22.2c137.2-50.4,225.9-201.7,228-381.3c0-159.4-34.3-262.3-119-345c-94.8-94.8-232-125.1-544.7-119c-129.1,4-373.2,4-544.7,4l-308.7-4l-68.6-68.6c-90.8-90.8-94.8-185.6-10.1-278.4l58.5-66.6l421.6-10.1c460-12.1,496.3-20.2,597.1-141.2c60.5-70.6,84.7-165.4,82.7-314.7c-4-141.2-38.3-232-115-304.6c-104.9-98.8-159.4-106.9-683.9-106.9c-542.7,0-581-8.1-633.5-135.2c-38.3-90.8-22.2-167.4,54.5-240.1c58.5-56.5,64.6-58.5,347-68.6c161.4-6,304.6-22.2,328.8-34.3c195.7-111,266.3-431.7,125.1-570.9c-115-115-326.8-135.2-1085.4-102.9c-1539.3,66.6-2882.9,272.3-4028.7,619.3l-167.4,50.4V-1493V330.8l439.8,441.8c696,698,1097.5,1260.9,1363.8,1916.5c173.5,423.7,240.1,790.8,230,1252.8l-6.1,290.5l56.5,48.4C5262.7,4343.4,5359.5,4343.4,5484.6,4280.8z M2682.4-1722.9v-2360.4H1603.1H523.8v2360.4V637.4h1079.3h1079.3V-1722.9z"/></g></g>
</svg>